<?xml version="1.0" standalone="no"?>
<!DOCTYPE svg PUBLIC "-//W3C//DTD SVG 20010904//EN"
 "http://www.w3.org/TR/2001/REC-SVG-20010904/DTD/svg10.dtd">
<svg version="1.0" xmlns="http://www.w3.org/2000/svg"
 width="522.000000pt" height="361.000000pt" viewBox="0 0 522.000000 361.000000"
 preserveAspectRatio="xMidYMid meet">

<g transform="translate(0.000000,361.000000) scale(0.100000,-0.100000)"
fill="#04ddfe" stroke="none">
<path d="M1945 3373 c-321 -19 -621 -80 -856 -173 -301 -119 -450 -290 -385
-443 18 -44 92 -110 163 -145 251 -127 823 -195 1738 -208 780 -12 1289 27
1510 114 59 23 81 55 65 96 -5 15 -17 29 -26 33 -16 6 -178 -5 -469 -32 -82
-8 -235 -19 -340 -25 -104 -5 -215 -12 -245 -15 -30 -2 -262 -9 -515 -16 -790
-21 -1351 13 -1607 98 -145 48 -219 118 -196 184 16 47 95 107 223 170 256
124 541 197 950 241 84 9 265 13 600 12 471 -2 595 -7 845 -39 119 -16 351
-34 358 -29 8 5 -108 36 -223 59 -433 88 -1180 143 -1590 118z"/>
<path d="M2495 2953 c-383 -21 -702 -59 -944 -112 -107 -24 -265 -70 -259 -76
2 -3 20 0 39 5 83 23 343 61 521 77 245 22 1253 26 1408 6 52 -7 151 -20 219
-30 118 -16 124 -16 137 1 19 27 8 42 -47 66 -177 76 -503 95 -1074 63z"/>
<path d="M4803 2925 c-136 -38 -259 -142 -349 -293 -33 -55 -25 -65 9 -13 41
62 143 167 196 200 193 124 402 78 470 -103 46 -124 34 -233 -41 -380 -33 -64
-63 -102 -143 -181 -115 -115 -185 -160 -390 -250 -133 -58 -140 -62 -140 -89
0 -54 21 -53 160 7 331 145 530 329 611 567 47 141 42 253 -17 370 -69 139
-220 206 -366 165z"/>
<path d="M4855 2696 c-81 -25 -187 -90 -261 -159 -41 -38 -74 -74 -74 -79 0
-6 19 7 43 29 126 116 336 211 382 173 21 -17 19 -89 -4 -142 -28 -65 -102
-157 -178 -222 -37 -32 -142 -107 -233 -166 -219 -145 -204 -132 -196 -157 14
-43 37 -36 166 51 330 223 484 397 498 562 4 60 3 64 -26 93 -33 34 -55 37
-117 17z"/>
<path d="M4276 2358 c-61 -174 -282 -575 -411 -746 -92 -123 -74 -117 -260
-89 -60 9 -157 21 -214 27 -124 12 -570 13 -590 1 -8 -5 55 -11 155 -15 220
-9 391 -29 596 -68 l167 -32 -26 -30 c-47 -57 -187 -178 -290 -251 -239 -170
-457 -246 -778 -274 -270 -23 -536 29 -787 155 -230 116 -401 238 -558 400
-148 152 -242 289 -375 542 -33 64 -41 73 -63 70 -53 -6 -50 -26 32 -194 120
-247 243 -418 416 -580 237 -221 597 -411 904 -476 138 -29 402 -31 561 -5
385 65 622 191 921 492 l131 131 154 -51 c418 -140 661 -286 685 -411 8 -45
-31 -112 -97 -164 -194 -153 -536 -250 -1034 -292 -240 -20 -1264 -17 -1590 5
-578 39 -807 65 -1088 122 -407 83 -667 175 -707 251 -32 59 44 144 218 242
100 57 112 67 112 91 0 31 -16 51 -42 51 -29 0 -231 -125 -291 -180 -133 -122
-140 -254 -19 -361 214 -189 680 -313 1352 -359 354 -24 914 -34 1268 -21 911
31 1316 98 1678 277 148 72 256 160 293 237 74 152 -46 324 -312 447 -142 65
-300 120 -493 169 l-41 11 81 123 c117 176 290 533 353 729 34 106 25 128 -11
26z"/>
<path d="M3675 354 c-265 -60 -813 -141 -1105 -163 -415 -33 -1053 -17 -1420
35 -102 14 -295 58 -395 89 -80 25 -38 0 65 -38 319 -118 788 -182 1420 -194
387 -7 658 11 1085 73 164 24 420 72 497 94 63 18 86 72 48 110 -26 26 -57 25
-195 -6z"/>
</g>
</svg>
